<svg width="309" height="64" viewBox="0 0 309 64" fill="none" xmlns="http://www.w3.org/2000/svg">
<g clip-path="url(#clip0_350_530)">
<mask id="mask0_350_530" style="mask-type:luminance" maskUnits="userSpaceOnUse" x="0" y="0" width="309" height="64">
<path d="M309 0H0V64H309V0Z" fill="white"/>
</mask>
<g mask="url(#mask0_350_530)">
<path fill-rule="evenodd" clip-rule="evenodd" d="M27.7924 0.0211523C34.3078 0.278108 40.484 2.86499 45.0952 7.26844C49.46 11.4143 52.1362 16.909 52.6443 22.7681C53.1525 28.6271 51.4593 34.4675 47.8682 39.2426L30.88 61.9553C30.4071 62.5877 29.783 63.1032 29.0595 63.4588C28.336 63.8145 27.534 64 26.7203 64C25.9066 64 25.1047 63.8145 24.3812 63.4588C23.6577 63.1032 23.0335 62.5877 22.5606 61.9553L5.57239 39.2426C1.7825 34.1747 0.126158 27.9313 0.932048 21.7513C1.73794 15.5714 4.94716 9.90667 9.92285 5.88131C14.8985 1.85595 21.277 -0.235804 27.7924 0.0211523ZM27.2922 8.01487C31.6776 8.19554 35.8346 10.0144 38.9383 13.1106C41.8761 16.0257 43.6774 19.8892 44.0194 24.0088C44.3614 28.1284 43.2218 32.2349 40.8047 35.5925L29.3704 51.5623C29.0521 52.007 28.632 52.3694 28.145 52.6195C27.658 52.8695 27.1183 53 26.5706 53C26.0229 53 25.4831 52.8695 24.9961 52.6195C24.5092 52.3694 24.0891 52.007 23.7708 51.5623L12.3364 35.5925C9.78551 32.0291 8.67066 27.6392 9.21309 23.2939C9.75551 18.9486 11.9156 14.9656 15.2646 12.1353C18.6136 9.30497 22.9068 7.8342 27.2922 8.01487Z" fill="#010644"/>
<path fill-rule="evenodd" clip-rule="evenodd" d="M2.95778 14.7708C4.29922 18.0296 6.79911 21.8431 10.8932 28.0884C16.1502 36.1079 18.7788 40.1175 22.0623 42.5595C27.4925 46.5979 34.4269 48.0572 41.0242 46.55C41.606 46.4171 42.1885 46.2481 42.7841 46.04L30.88 61.9554C30.4071 62.5878 29.783 63.1033 29.0595 63.4589C28.336 63.8146 27.534 64.0001 26.7203 64.0001C25.9066 64.0001 25.1047 63.8146 24.3812 63.4589C23.6577 63.1033 23.0335 62.5878 22.5606 61.9554L5.57238 39.2427C1.7825 34.1748 0.126158 27.9314 0.932049 21.7514C1.24883 19.3222 1.93697 16.9725 2.95778 14.7708Z" fill="url(#paint0_linear_350_530)"/>
<path d="M29.0148 20.1477V20.1432L32.3927 21.6561L35.7841 20.3846L26.7584 17L17.7328 20.3846L26.7584 23.7692L30.1363 22.5023L26.7584 21.1101V21.1067L29.0148 20.1477Z" fill="#010644"/>
<path d="M17.7328 21.5128V31.6667L26.1943 34.8403V24.6865L17.7328 21.5128ZM22.2456 31.7039L19.9892 30.8578V29.654L22.2456 30.5001V31.7039Z" fill="#010644"/>
<path d="M32.3994 22.782V25.6082L30.143 26.4544V23.6282L27.3225 24.6865V34.8403L35.784 31.6667V21.5128L32.3994 22.782Z" fill="#010644"/>
<path d="M59.7668 50.5155V15.0909H73.5396C76.1759 15.0909 78.4259 15.5625 80.2896 16.5057C82.1646 17.4375 83.5907 18.7613 84.568 20.4772C85.5566 22.1818 86.0509 24.1875 86.0509 26.4943C86.0509 28.8125 85.5509 30.8068 84.5509 32.4772C83.5509 34.1363 82.1021 35.4091 80.2043 36.2954C78.318 37.1818 76.0339 37.625 73.3521 37.625H64.1305V31.6932H72.1589C73.568 31.6932 74.7384 31.5 75.6703 31.1136C76.6021 30.7272 77.2953 30.1477 77.7498 29.375C78.2157 28.6022 78.4487 27.642 78.4487 26.4943C78.4487 25.3352 78.2157 24.3579 77.7498 23.5625C77.2953 22.767 76.5964 22.1647 75.6532 21.7557C74.7214 21.3352 73.5453 21.125 72.1248 21.125H67.1475V50.5155H59.7668ZM78.6191 34.1136L87.2953 50.5155H79.1475L70.6589 34.1136H78.6191Z" fill="#010644"/>
<path d="M100.138 50.5113C97.4904 50.5113 95.2007 49.9488 93.2688 48.8238C91.3484 47.6875 89.8654 46.1079 88.82 44.0852C87.7745 42.0511 87.2518 39.6932 87.2518 37.0113C87.2518 34.3068 87.7745 31.9432 88.82 29.9204C89.8654 27.8863 91.3484 26.3068 93.2688 25.1818C95.2007 24.0454 97.4904 23.4772 100.138 23.4772C102.786 23.4772 105.07 24.0454 106.99 25.1818C108.922 26.3068 110.411 27.8863 111.456 29.9204C112.502 31.9432 113.025 34.3068 113.025 37.0113C113.025 39.6932 112.502 42.0511 111.456 44.0852C110.411 46.1079 108.922 47.6875 106.99 48.8238C105.07 49.9488 102.786 50.5113 100.138 50.5113ZM100.172 44.8863C101.377 44.8863 102.382 44.5454 103.189 43.8636C103.996 43.1704 104.604 42.2272 105.013 41.0341C105.434 39.8409 105.644 38.4829 105.644 36.9602C105.644 35.4375 105.434 34.0795 105.013 32.8863C104.604 31.6932 103.996 30.75 103.189 30.0568C102.382 29.3636 101.377 29.017 100.172 29.017C98.9563 29.017 97.9336 29.3636 97.1041 30.0568C96.2859 30.75 95.6666 31.6932 95.2461 32.8863C94.837 34.0795 94.6325 35.4375 94.6325 36.9602C94.6325 38.4829 94.837 39.8409 95.2461 41.0341C95.6666 42.2272 96.2859 43.1704 97.1041 43.8636C97.9336 44.5454 98.9563 44.8863 100.172 44.8863Z" fill="#010644"/>
<path d="M130.936 23.4545H138.143V40.6549C138.143 42.6769 137.659 44.4267 136.691 45.9044C135.732 47.3734 134.392 48.5097 132.673 49.3133C130.953 50.1083 128.957 50.5058 126.685 50.5058C124.395 50.5058 122.283 50.1083 120.563 49.3133C118.844 48.5097 117.504 47.3734 116.545 45.9044C115.595 44.4267 115.119 42.6769 115.119 40.6549V23.4545H122.326V40.0327C122.326 40.8537 122.507 41.5881 122.87 42.2362C123.233 42.8757 123.734 43.3769 124.374 43.7398C125.022 44.1027 125.864 44.2842 126.685 44.2842C127.514 44.2842 128.249 44.1027 128.888 43.7398C129.528 43.3769 130.029 42.8757 130.392 42.2362C130.755 41.5881 130.936 40.8537 130.936 40.0327V23.4545Z" fill="#010644"/>
<path d="M155.586 23.8182V29.2727H139.819V23.8182H155.586ZM143.398 17.5454H150.66V42.0961C150.66 42.7665 150.762 43.2892 150.966 43.6642C151.171 44.0279 151.455 44.2836 151.819 44.4313C152.194 44.579 152.626 44.6529 153.114 44.6529C153.455 44.6529 153.796 44.6245 154.137 44.5676C154.478 44.4995 154.739 44.4483 154.921 44.4142L156.063 49.8176C155.699 49.9313 155.188 50.062 154.529 50.2097C153.87 50.3688 153.069 50.4654 152.126 50.4995C150.376 50.5677 148.841 50.3347 147.523 49.8006C146.216 49.2665 145.199 48.437 144.472 47.312C143.745 46.187 143.387 44.7665 143.398 43.0506V17.5454Z" fill="#010644"/>
<path d="M170.526 50.5113C167.833 50.5113 165.515 49.9659 163.572 48.875C161.64 47.7727 160.151 46.2159 159.106 44.2045C158.061 42.1818 157.538 39.7897 157.538 37.0284C157.538 34.3352 158.061 31.9716 159.106 29.9375C160.151 27.9034 161.623 26.3182 163.521 25.1818C165.43 24.0454 167.668 23.4772 170.237 23.4772C171.964 23.4772 173.572 23.7557 175.061 24.3125C176.561 24.8579 177.867 25.6818 178.981 26.7841C180.106 27.8863 180.981 29.2727 181.606 30.9432C182.231 32.6022 182.543 34.5454 182.543 36.7727V38.767H160.436V34.267H175.708C175.708 33.2216 175.481 32.2954 175.026 31.4886C174.572 30.6818 173.941 30.0511 173.134 29.5966C172.339 29.1307 171.413 28.8977 170.356 28.8977C169.254 28.8977 168.276 29.1534 167.424 29.6647C166.583 30.1647 165.924 30.8409 165.447 31.6932C164.97 32.5341 164.725 33.4716 164.714 34.5057V38.7841C164.714 40.0795 164.953 41.1988 165.43 42.142C165.918 43.0852 166.606 43.8125 167.492 44.3238C168.379 44.8352 169.43 45.0909 170.646 45.0909C171.453 45.0909 172.191 44.9772 172.862 44.75C173.532 44.5227 174.106 44.1818 174.583 43.7272C175.061 43.2727 175.424 42.7159 175.674 42.0568L182.39 42.5C182.049 44.1136 181.35 45.5227 180.293 46.7272C179.248 47.9204 177.896 48.8522 176.237 49.5227C174.589 50.1818 172.686 50.5113 170.526 50.5113Z" fill="#010644"/>
<path d="M203.686 50.9601C200.518 50.9601 197.798 50.4161 195.526 49.3281C193.254 48.2081 191.382 46.7521 189.91 44.9601C188.438 43.1361 187.35 41.1681 186.646 39.0561C185.942 36.9441 185.59 34.8961 185.59 32.9121V31.8561C185.59 29.6481 185.942 27.4881 186.646 25.3761C187.382 23.2321 188.486 21.2961 189.958 19.5681C191.462 17.8401 193.334 16.4641 195.574 15.4401C197.814 14.4161 200.438 13.9041 203.446 13.9041C206.646 13.9041 209.478 14.5121 211.942 15.7281C214.438 16.9121 216.438 18.5921 217.942 20.7681C219.446 22.9121 220.326 25.4081 220.582 28.2561H211.654C211.43 27.0401 210.95 25.9841 210.214 25.0881C209.478 24.1921 208.534 23.5041 207.382 23.0241C206.23 22.5121 204.918 22.2561 203.446 22.2561C202.07 22.2561 200.822 22.4961 199.702 22.9761C198.614 23.4561 197.686 24.1441 196.918 25.0401C196.182 25.9041 195.606 26.9601 195.19 28.2081C194.806 29.4561 194.614 30.8641 194.614 32.4321C194.614 34.0001 194.806 35.4081 195.19 36.6561C195.606 37.9041 196.198 38.9761 196.966 39.8721C197.766 40.7681 198.726 41.4561 199.846 41.9361C200.966 42.3841 202.246 42.6081 203.686 42.6081C205.926 42.6081 207.814 42.0641 209.35 40.9761C210.918 39.8881 211.862 38.4321 212.182 36.6081H221.11C220.822 39.2321 219.942 41.6321 218.47 43.8081C216.998 45.9841 215.014 47.7281 212.518 49.0401C210.022 50.3201 207.078 50.9601 203.686 50.9601Z" fill="#F7A31B"/>
<path d="M230.995 50.5037V21.776H239.923V50.5037H230.995ZM221.395 22.736V14.96H249.523V22.736H221.395Z" fill="#F7A31B"/>
<path d="M252.594 50.5067V14.672H261.522V50.5067H252.594ZM273.714 50.5067L263.874 35.12H273.57L283.986 50.5067H273.714ZM259.266 39.248V32.384H267.666C268.722 32.384 269.634 32.176 270.402 31.76C271.17 31.344 271.762 30.752 272.178 29.984C272.626 29.216 272.85 28.32 272.85 27.296C272.85 26.24 272.626 25.328 272.178 24.56C271.762 23.792 271.17 23.2 270.402 22.784C269.634 22.368 268.722 22.16 267.666 22.16H259.266V14.672H267.138C270.178 14.672 272.802 15.136 275.01 16.064C277.218 16.96 278.914 18.304 280.098 20.096C281.282 21.856 281.874 24.048 281.874 26.672V27.44C281.874 30.064 281.266 32.256 280.05 34.016C278.866 35.744 277.17 37.056 274.962 37.952C272.786 38.816 270.178 39.248 267.138 39.248H259.266Z" fill="#F7A31B"/>
<path d="M286.685 50.5067V14.96H295.613V50.5067H286.685ZM294.654 50.5067V42.224H308.861V50.5067H294.654Z" fill="#F7A31B"/>
<path d="M256.169 34.8921V17.3921C274.169 15.8921 279.169 21.3921 279.669 25.3921C280.169 29.3921 278.724 33.3811 273.669 34.3921C266.169 35.8921 256.169 34.8921 256.169 34.8921Z" fill="#F7A31B"/>
<path d="M261.373 23.0078C260.341 23.9832 259.735 25.2897 259.674 26.668C259.614 28.0462 260.104 29.3955 261.048 30.4481C261.991 31.5006 263.319 32.1795 264.767 32.35C266.216 32.5204 267.679 32.1701 268.867 31.3684L274.19 27.7747C274.338 27.6747 274.459 27.5426 274.543 27.3896C274.626 27.2365 274.669 27.0669 274.669 26.8947C274.669 26.7226 274.626 26.553 274.543 26.3999C274.459 26.2469 274.338 26.1148 274.19 26.0148L268.867 22.4212C267.748 21.6615 266.379 21.3033 265.006 21.4108C263.632 21.5183 262.345 22.0844 261.373 23.0078ZM267.393 26.8947C267.393 27.2512 267.281 27.5996 267.072 27.8959C266.862 28.1923 266.564 28.4233 266.216 28.5597C265.867 28.6961 265.484 28.7318 265.114 28.6622C264.744 28.5927 264.404 28.4211 264.138 28.169C263.871 27.917 263.69 27.5959 263.616 27.2463C263.542 26.8968 263.58 26.5344 263.724 26.2051C263.869 25.8758 264.113 25.5944 264.427 25.3964C264.74 25.1983 265.109 25.0926 265.486 25.0926C265.992 25.0927 266.477 25.2825 266.835 25.6205C267.192 25.9584 267.393 26.4168 267.393 26.8947Z" fill="white"/>
</g>
</g>
<defs>
<linearGradient id="paint0_linear_350_530" x1="21.7316" y1="14.7684" x2="21.7316" y2="64.0002" gradientUnits="userSpaceOnUse">
<stop stop-color="#F7A31B"/>
<stop offset="1" stop-color="#FFC463"/>
</linearGradient>
<clipPath id="clip0_350_530">
<rect width="309" height="64" fill="white"/>
</clipPath>
</defs>
</svg>
